<svg width="500" height="88" viewBox="0 0 500 88" fill="none" xmlns="http://www.w3.org/2000/svg">
<path d="M25.1898 85.4268C21.4813 85.4268 17.9303 85.149 14.5366 84.5934C11.178 84.0725 8.25666 83.4474 5.77267 82.7181C3.28867 81.9541 1.53938 81.2596 0.524788 80.6345L2.93881 65.5286C4.23329 66.2578 5.98258 67.0045 8.18669 67.7684C10.3908 68.5324 12.8223 69.1922 15.4812 69.7478C18.1752 70.2687 20.8866 70.5292 23.6155 70.5292C27.289 70.5292 29.9479 70.0083 31.5922 68.9665C33.2716 67.9247 34.1112 66.2578 34.1112 63.9659C34.1112 62.299 33.6039 60.8926 32.5893 59.7467C31.5747 58.566 29.8954 57.3679 27.5514 56.1525C25.2423 54.9371 22.1461 53.4091 18.2626 51.5686C14.9739 50.0059 11.9477 48.1654 9.18379 46.0471C6.41991 43.8941 4.1983 41.3243 2.51898 38.3379C0.839661 35.3167 0 31.7399 0 27.6074C0 24.0653 0.664732 20.9747 1.99419 18.3355C3.35864 15.6616 5.26537 13.4391 7.71438 11.668C10.1984 9.897 13.1372 8.5774 16.5308 7.70925C19.9244 6.80636 23.6854 6.35492 27.8138 6.35492C33.6914 6.35492 38.4844 6.89318 42.193 7.96969C45.9015 9.04621 48.4554 10.0012 49.8549 10.8346L46.8111 25.3155C45.2367 24.1001 42.8052 22.9888 39.5165 21.9818C36.2628 20.94 32.9217 20.4191 29.4931 20.4191C27.0441 20.4191 25.0324 20.6969 23.458 21.2525C21.8837 21.7734 20.7116 22.52 19.9419 23.4924C19.1723 24.4647 18.7874 25.5933 18.7874 26.8782C18.7874 28.4409 19.2422 29.8299 20.1519 31.0453C21.0965 32.226 22.5484 33.4067 24.5076 34.5874C26.5018 35.7334 29.0733 37.0183 32.222 38.442C35.5806 39.9353 38.5719 41.4632 41.1959 43.0259C43.8548 44.5886 46.1114 46.2902 47.9656 48.1307C49.8199 49.9712 51.2193 52.0721 52.1639 54.4335C53.1435 56.7602 53.6333 59.4515 53.6333 62.5074C53.6333 67.126 52.5313 71.1543 50.3272 74.5922C48.158 78.0301 44.9568 80.704 40.7235 82.6139C36.4903 84.4892 31.3123 85.4268 25.1898 85.4268Z" fill="white"/>
<path d="M64.9302 84.5934V0H83.9275V21.7734L82.878 34.7958L82.3532 33.2331C83.5777 32.1219 85.1695 30.9933 87.1287 29.8473C89.088 28.7013 91.2746 27.7463 93.6886 26.9824C96.1026 26.1837 98.6216 25.7669 101.246 25.7322C107.613 25.5586 112.301 27.3296 115.31 31.0453C118.319 34.7263 119.823 40.4562 119.823 48.2349V84.5934H100.721V51.4644C100.721 47.0195 100.108 44.0677 98.884 42.6092C97.6595 41.1507 95.7877 40.4562 93.2688 40.5256C92.0792 40.5256 90.5749 40.8034 88.7556 41.3591C86.9713 41.88 85.362 42.8523 83.9275 44.2761V84.5934H64.9302Z" fill="white"/>
<path d="M158.891 85.4268C153.503 85.4268 148.92 84.6107 145.142 82.9786C141.398 81.3117 138.389 79.0371 136.115 76.1548C133.841 73.2726 132.197 69.9736 131.182 66.2578C130.168 62.5074 129.678 58.5486 129.713 54.3814C129.818 48.2001 131.165 42.9912 133.754 38.7546C136.343 34.518 139.894 31.3058 144.407 29.118C148.92 26.9303 154.098 25.8364 159.941 25.8364C167.148 25.8364 172.885 27.2602 177.154 30.1077C181.457 32.9553 184.536 36.7231 186.39 41.4112C188.244 46.0992 189.119 51.2213 189.014 56.7776C188.944 62.9936 187.614 68.2372 185.025 72.5086C182.471 76.7452 178.938 79.9574 174.425 82.1451C169.912 84.3329 164.734 85.4268 158.891 85.4268ZM159.311 72.4044C163.054 72.4044 165.643 71.0501 167.078 68.3414C168.547 65.598 169.282 61.4656 169.282 55.9441C169.282 52.8188 168.984 49.9712 168.39 47.4014C167.795 44.797 166.798 42.7308 165.398 41.2028C163.999 39.6401 162.075 38.8588 159.626 38.8588C155.812 38.8588 153.153 40.2305 151.649 42.9738C150.18 45.7172 149.445 49.7281 149.445 55.0065C149.445 58.2013 149.742 61.1183 150.337 63.7575C150.967 66.3968 151.999 68.4977 153.433 70.0604C154.868 71.6231 156.827 72.4044 159.311 72.4044Z" fill="white"/>
<path d="M217.142 50.4226L216.408 36.7752C217.107 34.6569 218.28 32.7643 219.924 31.0974C221.603 29.4306 223.597 28.1283 225.906 27.1907C228.251 26.2184 230.787 25.7322 233.516 25.7322C234.356 25.7322 235.195 25.7843 236.035 25.8885C236.875 25.9927 237.469 26.1489 237.819 26.3573V45.0053C237.364 44.6928 236.647 44.3802 235.668 44.0677C234.688 43.7205 233.306 43.5468 231.522 43.5468C228.723 43.5468 226.361 43.9635 224.437 44.797C222.548 45.5957 221.008 46.5333 219.819 47.6098C218.664 48.6863 217.772 49.6239 217.142 50.4226ZM199.3 84.5934V26.5656H215.883L216.828 36.8794L218.297 38.442V84.5934H199.3Z" fill="white"/>
<path d="M267.296 85.4268C263.098 85.4268 259.739 84.7322 257.22 83.3432C254.736 81.9541 252.934 79.8706 251.815 77.0925C250.73 74.2796 250.188 70.7723 250.188 66.5704V38.9629H243.47V28.9618C246.059 28.2325 248.194 27.4859 249.873 26.7219C251.552 25.9232 252.777 24.7251 253.546 23.1277C253.931 22.329 254.351 21.3741 254.806 20.2628C255.261 19.1516 255.733 17.9882 256.223 16.7728C256.713 15.5574 257.185 14.4114 257.64 13.3349H269.185V26.5656H284.299V38.9629H269.185V59.5904C269.185 63.2019 269.378 65.8411 269.762 67.508C270.182 69.1749 270.882 70.234 271.861 70.6854C272.841 71.1369 274.188 71.3626 275.902 71.3626C276.777 71.3626 277.774 71.2584 278.894 71.0501C280.013 70.807 281.08 70.5118 282.095 70.1646C283.109 69.8173 283.914 69.4527 284.509 69.0707L286.713 79.4886C285.803 80.3915 284.351 81.3117 282.357 82.2493C280.398 83.1522 278.106 83.9162 275.483 84.5413C272.859 85.1316 270.13 85.4268 267.296 85.4268Z" fill="white"/>
<path d="M322.709 85.4268C313.263 85.4268 306.056 82.7702 301.088 77.4571C296.12 72.1092 293.636 64.7299 293.636 55.319C293.636 49.6934 294.791 44.6581 297.1 40.2131C299.409 35.7681 302.732 32.2608 307.071 29.691C311.444 27.1213 316.727 25.8364 322.919 25.8364C326.033 25.8364 329.042 26.201 331.946 26.9303C334.849 27.6248 337.456 28.8576 339.765 30.6286C342.074 32.3649 343.928 34.7611 345.328 37.817C346.727 40.8729 347.444 44.7275 347.479 49.3808C347.479 51.4644 347.409 53.4438 347.269 55.319C347.164 57.1943 347.025 58.757 346.85 60.0071H303.397L304.447 50.631H329.846C330.021 47.8182 329.881 45.4741 329.427 43.5989C329.007 41.689 328.22 40.2652 327.065 39.3276C325.946 38.39 324.424 37.9212 322.499 37.9212C320.295 37.9212 318.424 38.5289 316.884 39.7443C315.38 40.925 314.243 42.9738 313.473 45.8908C312.703 48.8079 312.354 52.8535 312.423 58.0277C312.493 61.3962 313.106 64.1222 314.26 66.2058C315.45 68.2546 317.129 69.7478 319.298 70.6854C321.467 71.6231 324.074 72.0919 327.118 72.0919C329.007 72.0919 330.983 71.953 333.048 71.6751C335.112 71.3973 337.019 71.0327 338.768 70.5813C340.552 70.1298 341.917 69.661 342.861 69.1749L345.8 79.176C344.506 80.2178 342.704 81.2249 340.395 82.1972C338.121 83.1348 335.462 83.9162 332.418 84.5413C329.409 85.1316 326.173 85.4268 322.709 85.4268Z" fill="white"/>
<path d="M376.731 50.4226L375.997 36.7752C376.696 34.6569 377.868 32.7643 379.513 31.0974C381.192 29.4306 383.186 28.1283 385.495 27.1907C387.839 26.2184 390.376 25.7322 393.105 25.7322C393.944 25.7322 394.784 25.7843 395.624 25.8885C396.463 25.9927 397.058 26.1489 397.408 26.3573V45.0053C396.953 44.6928 396.236 44.3802 395.256 44.0677C394.277 43.7205 392.895 43.5468 391.111 43.5468C388.312 43.5468 385.95 43.9635 384.026 44.797C382.137 45.5957 380.597 46.5333 379.408 47.6098C378.253 48.6863 377.361 49.6239 376.731 50.4226ZM358.889 84.5934V26.5656H375.472L376.416 36.8794L377.886 38.442V84.5934H358.889Z" fill="white"/>
<path d="M391.124 88C389.655 88 388.382 87.4652 387.304 86.3956C386.226 85.3018 385.663 83.9526 385.614 82.3483C385.59 81.1572 385.859 80.0754 386.422 79.1031C387.01 78.1308 387.769 77.3529 388.7 76.7695C389.631 76.1861 390.61 75.8944 391.639 75.8944C393.427 75.8944 394.786 76.4535 395.716 77.5717C396.647 78.6899 397.125 80.0025 397.149 81.5096C397.198 82.7251 396.941 83.8311 396.378 84.8277C395.814 85.8001 395.067 86.5779 394.137 87.1614C393.206 87.7204 392.202 88 391.124 88Z" fill="#FCA311"/>
<path d="M429.061 87.7812C423.992 87.7812 419.902 86.8575 416.791 85.0101C413.706 83.1626 411.465 80.5008 410.069 77.0247C408.697 73.5486 408.012 69.3797 408.012 64.5181L408.048 33.0143H416.644L416.571 62.8772C416.571 67.7146 417.061 71.446 418.04 74.0713C419.044 76.6966 420.489 78.5197 422.375 79.5407C424.285 80.5616 426.6 81.0721 429.318 81.0721C431.767 81.0721 433.861 80.5616 435.6 79.5407C437.363 78.4954 438.71 76.6601 439.641 74.0348C440.596 71.4095 441.073 67.6903 441.073 62.8772V33.0143H449.596V64.6639C449.596 72.1023 447.906 77.8148 444.526 81.8013C441.147 85.7879 435.992 87.7812 429.061 87.7812Z" fill="#FCA311"/>
<path d="M468.825 57.3714L468.311 51.8291C468.678 51.0755 469.45 50.249 470.625 49.3496C471.801 48.4259 473.184 47.6358 474.776 46.9795C476.392 46.3232 478.033 45.995 479.699 45.995C480.629 45.995 481.425 46.0315 482.086 46.1044C482.772 46.1773 483.274 46.311 483.593 46.5055V54.3814C483.225 54.187 482.662 53.9803 481.903 53.7616C481.168 53.5428 479.968 53.4334 478.303 53.4334C476.784 53.4334 475.413 53.6522 474.188 54.0897C472.988 54.503 471.935 55.0135 471.029 55.6212C470.123 56.2289 469.388 56.8123 468.825 57.3714ZM460.817 87.1978V46.6514H468.017L468.605 51.8291L469.266 54.8919V87.1978H460.817Z" fill="#FCA311"/>
<path d="M491.477 87.1978V27.9096H500V87.1978H491.477Z" fill="#FCA311"/>
</svg>
