<svg width="400" height="400" viewBox="0 0 400 400" fill="none" xmlns="http://www.w3.org/2000/svg">
<path d="M204.707 362.448C293.073 362.448 364.707 290.814 364.707 202.448C364.707 114.083 293.073 42.4482 204.707 42.4482C116.342 42.4482 44.7074 114.083 44.7074 202.448C44.7074 290.814 116.342 362.448 204.707 362.448Z" fill="#E8F4FA" stroke="#DAEDF7" stroke-width="1.50648" stroke-miterlimit="10"/>
<path d="M321.234 192.206L294.386 110.294M200.202 338.542L269.418 312.362L200.202 338.542ZM46.6462 154.89L105.258 306.438L46.6462 154.89ZM197.462 48.9095L122.39 90.3535L197.462 48.9095ZM46.6462 154.89L122.39 90.3535L46.6462 154.89ZM260.31 73.3095L197.462 48.9095L260.31 73.3095ZM294.386 110.294L260.31 73.3095L294.386 110.294ZM341.77 126.562L294.386 110.294L341.77 126.562ZM321.234 192.206L269.418 312.362L321.234 192.206ZM343.946 278.774L269.418 312.362L343.946 278.774ZM122.39 90.3535L260.31 73.3095L122.39 90.3535ZM121.594 243.354L105.258 306.438L121.594 243.354ZM46.6462 154.89L121.594 243.354L46.6462 154.89ZM200.202 338.542L121.594 243.354L200.202 338.542ZM123.214 161.366L200.202 146.258L123.214 161.366ZM260.31 73.3095L215.426 223.622L260.31 73.3095Z" stroke="#45413C" stroke-width="1.50648" stroke-linecap="round" stroke-linejoin="round"/>
<path d="M343.947 278.774L215.427 223.622L343.947 278.774Z" fill="#FFE500"/>
<path d="M343.947 278.774L215.427 223.622" stroke="#45413C" stroke-width="1.50648" stroke-linecap="round" stroke-linejoin="round"/>
<path d="M215.424 223.621L200.2 146.257L260.308 73.3088" stroke="#45413C" stroke-width="1.50648" stroke-linecap="round" stroke-linejoin="round"/>
<path d="M200.2 146.256L321.232 192.204L200.2 146.256ZM343.944 278.772L321.232 192.204L343.944 278.772Z" fill="#FFE500"/>
<path d="M343.944 278.772L321.232 192.204M200.2 146.256L321.232 192.204L200.2 146.256Z" stroke="#45413C" stroke-width="1.50648" stroke-linecap="round" stroke-linejoin="round"/>
<path d="M215.325 222.975L200.201 338.543L105.257 306.439M269.417 312.363L215.425 223.623L269.417 312.363Z" stroke="#45413C" stroke-width="1.50648" stroke-linecap="round" stroke-linejoin="round"/>
<path d="M215.327 222.971L121.595 243.351L215.327 222.971ZM341.771 126.559L321.235 192.203L341.771 126.559Z" fill="#FFE500"/>
<path d="M341.771 126.559L321.235 192.203M215.327 222.971L121.595 243.351L215.327 222.971Z" stroke="#45413C" stroke-width="1.50648" stroke-linecap="round" stroke-linejoin="round"/>
<path d="M200.201 157.609C206.47 157.609 211.553 152.526 211.553 146.257C211.553 139.987 206.47 134.905 200.201 134.905C193.931 134.905 188.849 139.987 188.849 146.257C188.849 152.526 193.931 157.609 200.201 157.609Z" fill="#FF6242" stroke="#45413C" stroke-width="1.50648" stroke-linecap="round" stroke-linejoin="round"/>
<path d="M215.427 223.622L294.387 110.294L215.427 223.622Z" fill="#FCA311"/>
<path d="M215.427 223.622L294.387 110.294" stroke="#45413C" stroke-width="1.50648" stroke-linecap="round" stroke-linejoin="round"/>
<path d="M123.214 161.366L215.426 223.622L123.214 161.366ZM123.214 161.366L122.39 90.3535L123.214 161.366ZM123.214 161.366L197.462 48.9095L123.214 161.366ZM123.214 161.366L46.6462 154.89L123.214 161.366ZM123.214 161.366L121.594 243.354L123.214 161.366Z" fill="#FFE500"/>
<path d="M123.214 161.366L121.594 243.354M123.214 161.366L215.426 223.622L123.214 161.366ZM123.214 161.366L122.39 90.3535L123.214 161.366ZM123.214 161.366L197.462 48.9095L123.214 161.366ZM123.214 161.366L46.6462 154.89L123.214 161.366Z" stroke="#45413C" stroke-width="1.50648" stroke-linecap="round" stroke-linejoin="round"/>
<path d="M294.387 121.646C300.657 121.646 305.739 116.564 305.739 110.295C305.739 104.025 300.657 98.9425 294.387 98.9425C288.118 98.9425 283.035 104.025 283.035 110.295C283.035 116.564 288.118 121.646 294.387 121.646Z" fill="#FFE500" stroke="#45413C" stroke-width="1.50648" stroke-linecap="round" stroke-linejoin="round"/>
<path d="M341.769 137.914C348.039 137.914 353.121 132.832 353.121 126.562C353.121 120.293 348.039 115.21 341.769 115.21C335.499 115.21 330.417 120.293 330.417 126.562C330.417 132.832 335.499 137.914 341.769 137.914Z" fill="#FF6242" stroke="#45413C" stroke-width="1.50648" stroke-linecap="round" stroke-linejoin="round"/>
<path d="M343.945 290.125C350.215 290.125 355.297 285.042 355.297 278.773C355.297 272.503 350.215 267.421 343.945 267.421C337.676 267.421 332.593 272.503 332.593 278.773C332.593 285.042 337.676 290.125 343.945 290.125Z" fill="#4ACFFF" stroke="#45413C" stroke-width="1.50648" stroke-linecap="round" stroke-linejoin="round"/>
<path d="M260.312 84.6613C266.581 84.6613 271.664 79.5788 271.664 73.3093C271.664 67.0397 266.581 61.9573 260.312 61.9573C254.042 61.9573 248.96 67.0397 248.96 73.3093C248.96 79.5788 254.042 84.6613 260.312 84.6613Z" fill="#4ACFFF" stroke="#45413C" stroke-width="1.50648" stroke-linecap="round" stroke-linejoin="round"/>
<path d="M122.345 101.707C128.614 101.707 133.697 96.6245 133.697 90.3549C133.697 84.0854 128.614 79.0029 122.345 79.0029C116.075 79.0029 110.993 84.0854 110.993 90.3549C110.993 96.6245 116.075 101.707 122.345 101.707Z" fill="#4ACFFF" stroke="#45413C" stroke-width="1.50648" stroke-linecap="round" stroke-linejoin="round"/>
<path d="M46.6467 166.714C52.9162 166.714 57.9987 161.631 57.9987 155.362C57.9987 149.092 52.9162 144.01 46.6467 144.01C40.3771 144.01 35.2947 149.092 35.2947 155.362C35.2947 161.631 40.3771 166.714 46.6467 166.714Z" fill="#FFE500" stroke="#45413C" stroke-width="1.50648" stroke-linecap="round" stroke-linejoin="round"/>
<path d="M197.463 60.262C203.733 60.262 208.815 55.1795 208.815 48.91C208.815 42.6404 203.733 37.558 197.463 37.558C191.194 37.558 186.111 42.6404 186.111 48.91C186.111 55.1795 191.194 60.262 197.463 60.262Z" fill="#FFE500" stroke="#45413C" stroke-width="1.50648" stroke-linecap="round" stroke-linejoin="round"/>
<path d="M200.201 349.39C206.47 349.39 211.553 344.308 211.553 338.038C211.553 331.769 206.47 326.686 200.201 326.686C193.931 326.686 188.849 331.769 188.849 338.038C188.849 344.308 193.931 349.39 200.201 349.39Z" fill="#FFE500" stroke="#45413C" stroke-width="1.50648" stroke-linecap="round" stroke-linejoin="round"/>
<path d="M105.26 317.791C111.529 317.791 116.612 312.709 116.612 306.439C116.612 300.169 111.529 295.087 105.26 295.087C98.9903 295.087 93.9078 300.169 93.9078 306.439C93.9078 312.709 98.9903 317.791 105.26 317.791Z" fill="#FF6242" stroke="#45413C" stroke-width="1.50648" stroke-linecap="round" stroke-linejoin="round"/>
<path d="M121.596 254.708C127.865 254.708 132.948 249.625 132.948 243.356C132.948 237.086 127.865 232.004 121.596 232.004C115.326 232.004 110.244 237.086 110.244 243.356C110.244 249.625 115.326 254.708 121.596 254.708Z" fill="#4ACFFF" stroke="#45413C" stroke-width="1.50648" stroke-linecap="round" stroke-linejoin="round"/>
<path d="M113.964 153.146C113.939 154.377 114.159 155.602 114.613 156.747C115.066 157.892 115.744 158.935 116.606 159.815C117.467 160.695 118.496 161.394 119.632 161.871C120.767 162.349 121.987 162.594 123.218 162.594C124.45 162.594 125.669 162.349 126.805 161.871C127.94 161.394 128.969 160.695 129.831 159.815C130.693 158.935 131.37 157.892 131.824 156.747C132.277 155.602 132.498 154.377 132.472 153.146V148.518C132.498 147.287 132.277 146.062 131.824 144.917C131.37 143.772 130.693 142.729 129.831 141.849C128.969 140.969 127.94 140.27 126.805 139.793C125.669 139.315 124.45 139.07 123.218 139.07C121.987 139.07 120.767 139.315 119.632 139.793C118.496 140.27 117.467 140.969 116.606 141.849C115.744 142.729 115.066 143.772 114.613 144.917C114.159 146.062 113.939 147.287 113.964 148.518V153.146Z" fill="#E8F4FA"/>
<path d="M123.217 182.577C139.103 182.577 151.981 169.699 151.981 153.813C151.981 137.927 139.103 125.049 123.217 125.049C107.331 125.049 94.453 137.927 94.453 153.813C94.453 169.699 107.331 182.577 123.217 182.577Z" fill="#FCA311" stroke="#45413C" stroke-width="1.50648" stroke-linecap="round" stroke-linejoin="round"/>
<path d="M113.964 153.147C113.938 154.378 114.159 155.602 114.612 156.748C115.066 157.893 115.744 158.936 116.605 159.816C117.467 160.696 118.496 161.395 119.632 161.872C120.767 162.349 121.986 162.595 123.218 162.595C124.45 162.595 125.669 162.349 126.805 161.872C127.94 161.395 128.969 160.696 129.831 159.816C130.693 158.936 131.37 157.893 131.824 156.748C132.277 155.602 132.498 154.378 132.472 153.147V148.519C132.498 147.287 132.277 146.063 131.824 144.918C131.37 143.773 130.693 142.73 129.831 141.85C128.969 140.97 127.94 140.271 126.805 139.794C125.669 139.316 124.45 139.07 123.218 139.07C121.986 139.07 120.767 139.316 119.632 139.794C118.496 140.271 117.467 140.97 116.605 141.85C115.744 142.73 115.066 143.773 114.612 144.918C114.159 146.063 113.938 147.287 113.964 148.519V153.147Z" fill="#FFCEBF" stroke="#45413C" stroke-width="1.50648" stroke-linecap="round" stroke-linejoin="round"/>
<path d="M142.448 175.201C137.168 179.942 130.322 182.565 123.226 182.565C116.13 182.565 109.284 179.942 104.004 175.201C105.592 171.419 108.261 168.191 111.677 165.92C115.093 163.65 119.103 162.439 123.204 162.439C127.305 162.439 131.316 163.65 134.731 165.92C138.147 168.191 140.816 171.419 142.404 175.201" fill="#9CEB60"/>
<path d="M142.448 175.201C137.168 179.942 130.322 182.565 123.226 182.565C116.13 182.565 109.284 179.942 104.004 175.201C105.592 171.419 108.261 168.191 111.677 165.92C115.093 163.65 119.103 162.439 123.204 162.439C127.305 162.439 131.316 163.65 134.731 165.92C138.147 168.191 140.816 171.419 142.404 175.201" stroke="#45413C" stroke-width="1.50648" stroke-linecap="round" stroke-linejoin="round"/>
<path d="M114.04 147.323C114.282 145.456 115.088 143.708 116.35 142.311C117.612 140.914 119.27 139.935 121.102 139.506C122.935 139.076 124.855 139.215 126.607 139.905C128.358 140.595 129.857 141.803 130.904 143.367C128.715 145.491 125.989 146.981 123.019 147.678C120.049 148.374 116.946 148.252 114.04 147.323Z" fill="#A86C4D" stroke="#45413C" stroke-width="1.50648" stroke-linecap="round" stroke-linejoin="round"/>
<path d="M215.428 265.889C238.772 265.889 257.696 246.965 257.696 223.621C257.696 200.277 238.772 181.353 215.428 181.353C192.084 181.353 173.16 200.277 173.16 223.621C173.16 246.965 192.084 265.889 215.428 265.889Z" fill="#FCA311" stroke="#45413C" stroke-width="1.50648" stroke-linecap="round" stroke-linejoin="round"/>
<path d="M201.828 222.64C201.828 226.247 203.261 229.706 205.812 232.257C208.362 234.807 211.821 236.24 215.428 236.24C219.035 236.24 222.495 234.807 225.045 232.257C227.596 229.706 229.028 226.247 229.028 222.64V215.84C229.028 212.233 227.596 208.774 225.045 206.223C222.495 203.673 219.035 202.24 215.428 202.24C211.821 202.24 208.362 203.673 205.812 206.223C203.261 208.774 201.828 212.233 201.828 215.84V222.64Z" fill="#FFCEBF" stroke="#45413C" stroke-width="1.50648" stroke-linecap="round" stroke-linejoin="round"/>
<path d="M243.679 255.057C235.921 262.027 225.861 265.882 215.431 265.882C205.002 265.882 194.942 262.027 187.183 255.057C189.505 249.485 193.423 244.725 198.444 241.375C203.464 238.025 209.364 236.235 215.399 236.23C221.435 236.224 227.338 238.005 232.364 241.346C237.391 244.688 241.316 249.441 243.647 255.009" fill="#FF6242"/>
<path d="M243.679 255.057C235.921 262.027 225.861 265.882 215.431 265.882C205.002 265.882 194.942 262.027 187.183 255.057C189.505 249.485 193.423 244.725 198.444 241.375C203.464 238.025 209.364 236.235 215.399 236.23C221.435 236.224 227.338 238.005 232.364 241.346C237.391 244.688 241.316 249.441 243.647 255.009" stroke="#45413C" stroke-width="1.50648" stroke-linecap="round" stroke-linejoin="round"/>
<path d="M201.941 214.086C202.295 211.339 203.479 208.766 205.334 206.711C207.19 204.655 209.629 203.215 212.326 202.583C215.022 201.951 217.847 202.158 220.423 203.175C222.999 204.191 225.203 205.971 226.741 208.274C223.52 211.398 219.513 213.588 215.145 214.612C210.777 215.635 206.213 215.454 201.941 214.086Z" fill="#A86C4D" stroke="#45413C" stroke-width="1.50648" stroke-linecap="round" stroke-linejoin="round"/>
<path d="M321.234 218.897C337.12 218.897 349.998 206.019 349.998 190.133C349.998 174.247 337.12 161.369 321.234 161.369C305.348 161.369 292.47 174.247 292.47 190.133C292.47 206.019 305.348 218.897 321.234 218.897Z" fill="#FCA311" stroke="#45413C" stroke-width="1.50648" stroke-linecap="round" stroke-linejoin="round"/>
<path d="M311.976 189.467C311.976 191.922 312.952 194.277 314.687 196.012C316.423 197.748 318.778 198.723 321.232 198.723C323.687 198.723 326.042 197.748 327.777 196.012C329.513 194.277 330.488 191.922 330.488 189.467V184.839C330.488 182.385 329.513 180.03 327.777 178.295C326.042 176.559 323.687 175.583 321.232 175.583C318.778 175.583 316.423 176.559 314.687 178.295C312.952 180.03 311.976 182.385 311.976 184.839V189.467Z" fill="#FFCEBF" stroke="#45413C" stroke-width="1.50648" stroke-linecap="round" stroke-linejoin="round"/>
<path d="M340.461 211.523C335.182 216.267 328.335 218.891 321.237 218.891C314.14 218.891 307.293 216.267 302.013 211.523C303.594 207.732 306.26 204.493 309.677 202.213C313.094 199.933 317.109 198.715 321.217 198.712C325.324 198.709 329.341 199.92 332.762 202.194C336.182 204.468 338.854 207.702 340.441 211.491" fill="#FFAA54"/>
<path d="M340.461 211.523C335.182 216.267 328.335 218.891 321.237 218.891C314.14 218.891 307.293 216.267 302.013 211.523C303.594 207.732 306.26 204.493 309.677 202.213C313.094 199.933 317.109 198.715 321.217 198.712C325.324 198.709 329.341 199.92 332.762 202.194C336.182 204.468 338.854 207.702 340.441 211.491" stroke="#45413C" stroke-width="1.50648" stroke-linecap="round" stroke-linejoin="round"/>
<path d="M312.052 183.643C312.295 181.777 313.102 180.029 314.364 178.632C315.626 177.236 317.284 176.258 319.117 175.828C320.95 175.398 322.87 175.537 324.621 176.227C326.373 176.916 327.872 178.124 328.92 179.687C326.729 181.811 324.003 183.3 321.033 183.997C318.062 184.693 314.959 184.571 312.052 183.643Z" fill="#A86C4D" stroke="#45413C" stroke-width="1.50648" stroke-linecap="round" stroke-linejoin="round"/>
<path d="M269.421 341.028C285.307 341.028 298.185 328.15 298.185 312.264C298.185 296.378 285.307 283.5 269.421 283.5C253.535 283.5 240.657 296.378 240.657 312.264C240.657 328.15 253.535 341.028 269.421 341.028Z" fill="#FCA311" stroke="#45413C" stroke-width="1.50648" stroke-linecap="round" stroke-linejoin="round"/>
<path d="M260.164 311.605C260.164 314.06 261.139 316.414 262.875 318.15C264.61 319.886 266.965 320.861 269.42 320.861C271.874 320.861 274.229 319.886 275.965 318.15C277.7 316.414 278.676 314.06 278.676 311.605V306.973C278.676 304.518 277.7 302.164 275.965 300.428C274.229 298.692 271.874 297.717 269.42 297.717C266.965 297.717 264.61 298.692 262.875 300.428C261.139 302.164 260.164 304.518 260.164 306.973V311.605Z" fill="#FFCEBF" stroke="#45413C" stroke-width="1.50648" stroke-linecap="round" stroke-linejoin="round"/>
<path d="M288.648 333.659C283.367 338.4 276.521 341.022 269.424 341.022C262.327 341.022 255.481 338.4 250.2 333.659C251.78 329.867 254.446 326.628 257.863 324.348C261.28 322.068 265.295 320.849 269.402 320.845C273.51 320.842 277.527 322.053 280.948 324.326C284.369 326.6 287.041 329.834 288.628 333.623" fill="#00B8F0"/>
<path d="M288.648 333.659C283.367 338.4 276.521 341.022 269.424 341.022C262.327 341.022 255.481 338.4 250.2 333.659C251.78 329.867 254.446 326.628 257.863 324.348C261.28 322.068 265.295 320.849 269.402 320.845C273.51 320.842 277.527 322.053 280.948 324.326C284.369 326.6 287.041 329.834 288.628 333.623" stroke="#45413C" stroke-width="1.50648" stroke-linecap="round" stroke-linejoin="round"/>
<path d="M260.239 305.777C260.482 303.91 261.289 302.162 262.551 300.766C263.814 299.37 265.472 298.391 267.304 297.961C269.137 297.532 271.057 297.671 272.808 298.36C274.56 299.05 276.06 300.257 277.107 301.821C274.916 303.944 272.19 305.433 269.22 306.13C266.25 306.827 263.146 306.705 260.239 305.777Z" fill="#A86C4D" stroke="#45413C" stroke-width="1.50648" stroke-linecap="round" stroke-linejoin="round"/>
</svg>
