<svg width="196" height="50" viewBox="0 0 196 50" fill="none" xmlns="http://www.w3.org/2000/svg">
<path d="M11.6 39.32C10.1867 39.32 8.83333 39.2133 7.54 39C6.26 38.8 5.14667 38.56 4.2 38.28C3.25333 37.9867 2.58667 37.72 2.2 37.48L3.12 31.68C3.61333 31.96 4.28 32.2467 5.12 32.54C5.96 32.8333 6.88667 33.0867 7.9 33.3C8.92667 33.5 9.96 33.6 11 33.6C12.4 33.6 13.4133 33.4 14.04 33C14.68 32.6 15 31.96 15 31.08C15 30.44 14.8067 29.9 14.42 29.46C14.0333 29.0067 13.3933 28.5467 12.5 28.08C11.62 27.6133 10.44 27.0267 8.96 26.32C7.70667 25.72 6.55333 25.0133 5.5 24.2C4.44667 23.3733 3.6 22.3867 2.96 21.24C2.32 20.08 2 18.7067 2 17.12C2 15.76 2.25333 14.5733 2.76 13.56C3.28 12.5333 4.00667 11.68 4.94 11C5.88667 10.32 7.00667 9.81333 8.3 9.48C9.59333 9.13333 11.0267 8.96 12.6 8.96C14.84 8.96 16.6667 9.16666 18.08 9.58C19.4933 9.99333 20.4667 10.36 21 10.68L19.84 16.24C19.24 15.7733 18.3133 15.3467 17.06 14.96C15.82 14.56 14.5467 14.36 13.24 14.36C12.3067 14.36 11.54 14.4667 10.94 14.68C10.34 14.88 9.89333 15.1667 9.6 15.54C9.30667 15.9133 9.16 16.3467 9.16 16.84C9.16 17.44 9.33333 17.9733 9.68 18.44C10.04 18.8933 10.5933 19.3467 11.34 19.8C12.1 20.24 13.08 20.7333 14.28 21.28C15.56 21.8533 16.7 22.44 17.7 23.04C18.7133 23.64 19.5733 24.2933 20.28 25C20.9867 25.7067 21.52 26.5133 21.88 27.42C22.2533 28.3133 22.44 29.3467 22.44 30.52C22.44 32.2933 22.02 33.84 21.18 35.16C20.3533 36.48 19.1333 37.5067 17.52 38.24C15.9067 38.96 13.9333 39.32 11.6 39.32ZM26.7453 39V6.52H33.9853V14.88L33.5853 19.88L33.3853 19.28C33.852 18.8533 34.4586 18.42 35.2053 17.98C35.952 17.54 36.7853 17.1733 37.7053 16.88C38.6253 16.5733 39.5853 16.4133 40.5853 16.4C43.012 16.3333 44.7986 17.0133 45.9453 18.44C47.092 19.8533 47.6653 22.0533 47.6653 25.04V39H40.3853V26.28C40.3853 24.5733 40.152 23.44 39.6853 22.88C39.2186 22.32 38.5053 22.0533 37.5453 22.08C37.092 22.08 36.5186 22.1867 35.8253 22.4C35.1453 22.6 34.532 22.9733 33.9853 23.52V39H26.7453ZM62.5544 39.32C60.501 39.32 58.7544 39.0067 57.3144 38.38C55.8877 37.74 54.741 36.8667 53.8744 35.76C53.0077 34.6533 52.381 33.3867 51.9944 31.96C51.6077 30.52 51.421 29 51.4344 27.4C51.4744 25.0267 51.9877 23.0267 52.9744 21.4C53.961 19.7733 55.3144 18.54 57.0344 17.7C58.7544 16.86 60.7277 16.44 62.9544 16.44C65.701 16.44 67.8877 16.9867 69.5144 18.08C71.1544 19.1733 72.3277 20.62 73.0344 22.42C73.741 24.22 74.0744 26.1867 74.0344 28.32C74.0077 30.7067 73.501 32.72 72.5144 34.36C71.541 35.9867 70.1944 37.22 68.4744 38.06C66.7544 38.9 64.781 39.32 62.5544 39.32ZM62.7144 34.32C64.141 34.32 65.1277 33.8 65.6744 32.76C66.2344 31.7067 66.5144 30.12 66.5144 28C66.5144 26.8 66.401 25.7067 66.1744 24.72C65.9477 23.72 65.5677 22.9267 65.0344 22.34C64.501 21.74 63.7677 21.44 62.8344 21.44C61.381 21.44 60.3677 21.9667 59.7944 23.02C59.2344 24.0733 58.9544 25.6133 58.9544 27.64C58.9544 28.8667 59.0677 29.9867 59.2944 31C59.5344 32.0133 59.9277 32.82 60.4744 33.42C61.021 34.02 61.7677 34.32 62.7144 34.32ZM84.7544 25.88L84.4744 20.64C84.741 19.8267 85.1877 19.1 85.8144 18.46C86.4544 17.82 87.2144 17.32 88.0944 16.96C88.9877 16.5867 89.9544 16.4 90.9944 16.4C91.3144 16.4 91.6344 16.42 91.9544 16.46C92.2744 16.5 92.501 16.56 92.6344 16.64V23.8C92.461 23.68 92.1877 23.56 91.8144 23.44C91.441 23.3067 90.9144 23.24 90.2344 23.24C89.1677 23.24 88.2677 23.4 87.5344 23.72C86.8144 24.0267 86.2277 24.3867 85.7744 24.8C85.3344 25.2133 84.9944 25.5733 84.7544 25.88ZM77.9544 39V16.72H84.2744L84.6344 20.68L85.1944 21.28V39H77.9544ZM103.868 39.32C102.268 39.32 100.988 39.0533 100.028 38.52C99.0815 37.9867 98.3948 37.1867 97.9681 36.12C97.5548 35.04 97.3481 33.6933 97.3481 32.08V21.48H94.7881V17.64C95.7748 17.36 96.5881 17.0733 97.2281 16.78C97.8681 16.4733 98.3348 16.0133 98.6281 15.4C98.7748 15.0933 98.9348 14.7267 99.1081 14.3C99.2815 13.8733 99.4615 13.4267 99.6481 12.96C99.8348 12.4933 100.015 12.0533 100.188 11.64H104.588V16.72H110.348V21.48H104.588V29.4C104.588 30.7867 104.661 31.8 104.808 32.44C104.968 33.08 105.235 33.4867 105.608 33.66C105.981 33.8333 106.495 33.92 107.148 33.92C107.481 33.92 107.861 33.88 108.288 33.8C108.715 33.7067 109.121 33.5933 109.508 33.46C109.895 33.3267 110.201 33.1867 110.428 33.04L111.268 37.04C110.921 37.3867 110.368 37.74 109.608 38.1C108.861 38.4467 107.988 38.74 106.988 38.98C105.988 39.2067 104.948 39.32 103.868 39.32ZM124.987 39.32C121.387 39.32 118.64 38.3 116.747 36.26C114.853 34.2067 113.907 31.3733 113.907 27.76C113.907 25.6 114.347 23.6667 115.227 21.96C116.107 20.2533 117.373 18.9067 119.027 17.92C120.693 16.9333 122.707 16.44 125.067 16.44C126.253 16.44 127.4 16.58 128.507 16.86C129.613 17.1267 130.607 17.6 131.487 18.28C132.367 18.9467 133.073 19.8667 133.607 21.04C134.14 22.2133 134.413 23.6933 134.427 25.48C134.427 26.28 134.4 27.04 134.347 27.76C134.307 28.48 134.253 29.08 134.187 29.56H117.627L118.027 25.96H127.707C127.773 24.88 127.72 23.98 127.547 23.26C127.387 22.5267 127.087 21.98 126.647 21.62C126.22 21.26 125.64 21.08 124.907 21.08C124.067 21.08 123.353 21.3133 122.767 21.78C122.193 22.2333 121.76 23.02 121.467 24.14C121.173 25.26 121.04 26.8133 121.067 28.8C121.093 30.0933 121.327 31.14 121.767 31.94C122.22 32.7267 122.86 33.3 123.687 33.66C124.513 34.02 125.507 34.2 126.667 34.2C127.387 34.2 128.14 34.1467 128.927 34.04C129.713 33.9333 130.44 33.7933 131.107 33.62C131.787 33.4467 132.307 33.2667 132.667 33.08L133.787 36.92C133.293 37.32 132.607 37.7067 131.727 38.08C130.86 38.44 129.847 38.74 128.687 38.98C127.54 39.2067 126.307 39.32 124.987 39.32ZM145.575 25.88L145.295 20.64C145.561 19.8267 146.008 19.1 146.635 18.46C147.275 17.82 148.035 17.32 148.915 16.96C149.808 16.5867 150.775 16.4 151.815 16.4C152.135 16.4 152.455 16.42 152.775 16.46C153.095 16.5 153.321 16.56 153.455 16.64V23.8C153.281 23.68 153.008 23.56 152.635 23.44C152.261 23.3067 151.735 23.24 151.055 23.24C149.988 23.24 149.088 23.4 148.355 23.72C147.635 24.0267 147.048 24.3867 146.595 24.8C146.155 25.2133 145.815 25.5733 145.575 25.88ZM138.775 39V16.72H145.095L145.455 20.68L146.015 21.28V39H138.775Z" fill="white"/>
<path d="M151.06 40.308C150.5 40.308 150.015 40.1027 149.604 39.692C149.193 39.272 148.979 38.754 148.96 38.138C148.951 37.6807 149.053 37.2653 149.268 36.892C149.492 36.5187 149.781 36.22 150.136 35.996C150.491 35.772 150.864 35.66 151.256 35.66C151.937 35.66 152.455 35.8747 152.81 36.304C153.165 36.7333 153.347 37.2373 153.356 37.816C153.375 38.2827 153.277 38.7073 153.062 39.09C152.847 39.4633 152.563 39.762 152.208 39.986C151.853 40.2007 151.471 40.308 151.06 40.308ZM165.518 40.224C163.586 40.224 162.027 39.8693 160.842 39.16C159.666 38.4507 158.812 37.4287 158.28 36.094C157.757 34.7593 157.496 33.1587 157.496 31.292L157.51 19.196H160.786L160.758 30.662C160.758 32.5193 160.945 33.952 161.318 34.96C161.701 35.968 162.251 36.668 162.97 37.06C163.698 37.452 164.58 37.648 165.616 37.648C166.549 37.648 167.347 37.452 168.01 37.06C168.682 36.6587 169.195 35.954 169.55 34.946C169.914 33.938 170.096 32.51 170.096 30.662V19.196H173.344V31.348C173.344 34.204 172.7 36.3973 171.412 37.928C170.124 39.4587 168.159 40.224 165.518 40.224ZM180.672 28.548L180.476 26.42C180.616 26.1307 180.91 25.8133 181.358 25.468C181.806 25.1133 182.334 24.81 182.94 24.558C183.556 24.306 184.182 24.18 184.816 24.18C185.171 24.18 185.474 24.194 185.726 24.222C185.988 24.25 186.179 24.3013 186.3 24.376V27.4C186.16 27.3253 185.946 27.246 185.656 27.162C185.376 27.078 184.919 27.036 184.284 27.036C183.706 27.036 183.183 27.12 182.716 27.288C182.259 27.4467 181.858 27.6427 181.512 27.876C181.167 28.1093 180.887 28.3333 180.672 28.548ZM177.62 40V24.432H180.364L180.588 26.42L180.84 27.596V40H177.62ZM189.305 40V17.236H192.553V40H189.305Z" fill="#FCA311"/>
</svg>
